<?xml version="1.0" encoding="UTF-8" standalone="no"?>
<!DOCTYPE svg PUBLIC "-//W3C//DTD SVG 1.1//EN"
 "http://www.w3.org/Graphics/SVG/1.1/DTD/svg11.dtd">
<!-- Generated by graphviz version 2.36.0 (20140111.2315)
 -->
<!-- Title: G Pages: 1 -->
<svg width="907pt" height="603pt"
 viewBox="0.00 0.00 907.20 603.14" xmlns="http://www.w3.org/2000/svg" xmlns:xlink="http://www.w3.org/1999/xlink">
<g id="graph0" class="graph" transform="scale(1 1) rotate(0) translate(21.6 581.536)">
<title>G</title>
<polygon fill="#111111" stroke="none" points="-21.6,21.6 -21.6,-581.536 885.6,-581.536 885.6,21.6 -21.6,21.6"/>
<!-- app.js -->
<g id="node1" class="node"><title>app.js</title>
<path fill="none" stroke="#c6c5fe" d="M46.3333,-226.5C46.3333,-226.5 7.66667,-226.5 7.66667,-226.5 3.83333,-226.5 0,-222.667 0,-218.833 0,-218.833 0,-211.167 0,-211.167 0,-207.333 3.83333,-203.5 7.66667,-203.5 7.66667,-203.5 46.3333,-203.5 46.3333,-203.5 50.1667,-203.5 54,-207.333 54,-211.167 54,-211.167 54,-218.833 54,-218.833 54,-222.667 50.1667,-226.5 46.3333,-226.5"/>
<text text-anchor="middle" x="27" y="-211.3" font-family="Arial" font-size="14.00" fill="#c6c5fe">app.js</text>
</g>
<!-- lib/config.js -->
<g id="node2" class="node"><title>lib/config.js</title>
<path fill="none" stroke="#c6c5fe" d="M713.333,-321.5C713.333,-321.5 642.667,-321.5 642.667,-321.5 638.833,-321.5 635,-317.667 635,-313.833 635,-313.833 635,-306.167 635,-306.167 635,-302.333 638.833,-298.5 642.667,-298.5 642.667,-298.5 713.333,-298.5 713.333,-298.5 717.167,-298.5 721,-302.333 721,-306.167 721,-306.167 721,-313.833 721,-313.833 721,-317.667 717.167,-321.5 713.333,-321.5"/>
<text text-anchor="middle" x="678" y="-306.3" font-family="Arial" font-size="14.00" fill="#c6c5fe">lib/config.js</text>
</g>
<!-- app.js&#45;&gt;lib/config.js -->
<g id="edge1" class="edge"><title>app.js&#45;&gt;lib/config.js</title>
<path fill="none" stroke="#757575" d="M34.8546,-203.598C44.9166,-187.887 65.2059,-159.842 90,-145 273.808,-34.9694 386.676,31.0771 568,-83 641.824,-129.445 666.783,-241.365 674.204,-288.5"/>
<polygon fill="#757575" stroke="#757575" points="670.759,-289.131 675.666,-298.52 677.685,-288.12 670.759,-289.131"/>
</g>
<!-- lib/ftl/index.js -->
<g id="node3" class="node"><title>lib/ftl/index.js</title>
<path fill="none" stroke="#c6c5fe" d="M347.833,-281.5C347.833,-281.5 266.167,-281.5 266.167,-281.5 262.333,-281.5 258.5,-277.667 258.5,-273.833 258.5,-273.833 258.5,-266.167 258.5,-266.167 258.5,-262.333 262.333,-258.5 266.167,-258.5 266.167,-258.5 347.833,-258.5 347.833,-258.5 351.667,-258.5 355.5,-262.333 355.5,-266.167 355.5,-266.167 355.5,-273.833 355.5,-273.833 355.5,-277.667 351.667,-281.5 347.833,-281.5"/>
<text text-anchor="middle" x="307" y="-266.3" font-family="Arial" font-size="14.00" fill="#c6c5fe">lib/ftl/index.js</text>
</g>
<!-- app.js&#45;&gt;lib/ftl/index.js -->
<g id="edge2" class="edge"><title>app.js&#45;&gt;lib/ftl/index.js</title>
<path fill="none" stroke="#757575" d="M54.1536,-220.174C98.3629,-228.921 188.866,-246.826 248.474,-258.619"/>
<polygon fill="#757575" stroke="#757575" points="248.005,-262.094 258.494,-260.601 249.363,-255.227 248.005,-262.094"/>
</g>
<!-- lib/live/index.js -->
<g id="node4" class="node"><title>lib/live/index.js</title>
<path fill="none" stroke="#c6c5fe" d="M352.833,-181.5C352.833,-181.5 261.167,-181.5 261.167,-181.5 257.333,-181.5 253.5,-177.667 253.5,-173.833 253.5,-173.833 253.5,-166.167 253.5,-166.167 253.5,-162.333 257.333,-158.5 261.167,-158.5 261.167,-158.5 352.833,-158.5 352.833,-158.5 356.667,-158.5 360.5,-162.333 360.5,-166.167 360.5,-166.167 360.5,-173.833 360.5,-173.833 360.5,-177.667 356.667,-181.5 352.833,-181.5"/>
<text text-anchor="middle" x="307" y="-166.3" font-family="Arial" font-size="14.00" fill="#c6c5fe">lib/live/index.js</text>
</g>
<!-- app.js&#45;&gt;lib/live/index.js -->
<g id="edge3" class="edge"><title>app.js&#45;&gt;lib/live/index.js</title>
<path fill="none" stroke="#757575" d="M54.1536,-210.767C97.0852,-203.817 183.673,-189.801 243.23,-180.161"/>
<polygon fill="#757575" stroke="#757575" points="243.969,-183.587 253.281,-178.534 242.85,-176.677 243.969,-183.587"/>
</g>
<!-- lib/logger.js -->
<g id="node5" class="node"><title>lib/logger.js</title>
<path fill="none" stroke="#c6c5fe" d="M521.833,-462.5C521.833,-462.5 450.167,-462.5 450.167,-462.5 446.333,-462.5 442.5,-458.667 442.5,-454.833 442.5,-454.833 442.5,-447.167 442.5,-447.167 442.5,-443.333 446.333,-439.5 450.167,-439.5 450.167,-439.5 521.833,-439.5 521.833,-439.5 525.667,-439.5 529.5,-443.333 529.5,-447.167 529.5,-447.167 529.5,-454.833 529.5,-454.833 529.5,-458.667 525.667,-462.5 521.833,-462.5"/>
<text text-anchor="middle" x="486" y="-447.3" font-family="Arial" font-size="14.00" fill="#c6c5fe">lib/logger.js</text>
</g>
<!-- app.js&#45;&gt;lib/logger.js -->
<g id="edge4" class="edge"><title>app.js&#45;&gt;lib/logger.js</title>
<path fill="none" stroke="#757575" d="M29.3647,-226.607C33.3317,-255.255 47.4212,-330.035 90,-372 182.282,-462.951 347.881,-463.634 432.34,-457.069"/>
<polygon fill="#757575" stroke="#757575" points="432.803,-460.542 442.474,-456.215 432.215,-453.567 432.803,-460.542"/>
</g>
<!-- lib/mock/index.js -->
<g id="node6" class="node"><title>lib/mock/index.js</title>
<path fill="none" stroke="#c6c5fe" d="M201.833,-523.5C201.833,-523.5 98.1667,-523.5 98.1667,-523.5 94.3333,-523.5 90.5,-519.667 90.5,-515.833 90.5,-515.833 90.5,-508.167 90.5,-508.167 90.5,-504.333 94.3333,-500.5 98.1667,-500.5 98.1667,-500.5 201.833,-500.5 201.833,-500.5 205.667,-500.5 209.5,-504.333 209.5,-508.167 209.5,-508.167 209.5,-515.833 209.5,-515.833 209.5,-519.667 205.667,-523.5 201.833,-523.5"/>
<text text-anchor="middle" x="150" y="-508.3" font-family="Arial" font-size="14.00" fill="#c6c5fe">lib/mock/index.js</text>
</g>
<!-- app.js&#45;&gt;lib/mock/index.js -->
<g id="edge5" class="edge"><title>app.js&#45;&gt;lib/mock/index.js</title>
<path fill="none" stroke="#757575" d="M28.285,-226.476C29.7143,-263.877 38.3104,-384.465 90,-465 97.5909,-476.827 109.185,-486.997 120.093,-494.822"/>
<polygon fill="#757575" stroke="#757575" points="118.36,-497.875 128.603,-500.58 122.283,-492.078 118.36,-497.875"/>
</g>
<!-- lib/proxy/index.js -->
<g id="node7" class="node"><title>lib/proxy/index.js</title>
<path fill="none" stroke="#c6c5fe" d="M202.333,-363.5C202.333,-363.5 97.6667,-363.5 97.6667,-363.5 93.8333,-363.5 90,-359.667 90,-355.833 90,-355.833 90,-348.167 90,-348.167 90,-344.333 93.8333,-340.5 97.6667,-340.5 97.6667,-340.5 202.333,-340.5 202.333,-340.5 206.167,-340.5 210,-344.333 210,-348.167 210,-348.167 210,-355.833 210,-355.833 210,-359.667 206.167,-363.5 202.333,-363.5"/>
<text text-anchor="middle" x="150" y="-348.3" font-family="Arial" font-size="14.00" fill="#c6c5fe">lib/proxy/index.js</text>
</g>
<!-- app.js&#45;&gt;lib/proxy/index.js -->
<g id="edge6" class="edge"><title>app.js&#45;&gt;lib/proxy/index.js</title>
<path fill="none" stroke="#757575" d="M38.3164,-226.681C59.2269,-250.356 106.775,-304.191 132.211,-332.991"/>
<polygon fill="#757575" stroke="#757575" points="129.807,-335.556 139.05,-340.734 135.053,-330.922 129.807,-335.556"/>
</g>
<!-- lib/static.js -->
<g id="node8" class="node"><title>lib/static.js</title>
<path fill="none" stroke="#cfffac" d="M182.833,-22.5C182.833,-22.5 117.167,-22.5 117.167,-22.5 113.333,-22.5 109.5,-18.6667 109.5,-14.8333 109.5,-14.8333 109.5,-7.16667 109.5,-7.16667 109.5,-3.33333 113.333,0.5 117.167,0.5 117.167,0.5 182.833,0.5 182.833,0.5 186.667,0.5 190.5,-3.33333 190.5,-7.16667 190.5,-7.16667 190.5,-14.8333 190.5,-14.8333 190.5,-18.6667 186.667,-22.5 182.833,-22.5"/>
<text text-anchor="middle" x="150" y="-7.3" font-family="Arial" font-size="14.00" fill="#cfffac">lib/static.js</text>
</g>
<!-- app.js&#45;&gt;lib/static.js -->
<g id="edge7" class="edge"><title>app.js&#45;&gt;lib/static.js</title>
<path fill="none" stroke="#757575" d="M28.8949,-203.403C31.8739,-172.434 44.0532,-86.7729 90,-37 93.47,-33.241 97.5816,-29.9955 101.995,-27.1999"/>
<polygon fill="#757575" stroke="#757575" points="103.699,-30.2569 110.765,-22.3618 100.318,-24.1278 103.699,-30.2569"/>
</g>
<!-- lib/weinre.js -->
<g id="node9" class="node"><title>lib/weinre.js</title>
<path fill="none" stroke="#c6c5fe" d="M344.333,-140.5C344.333,-140.5 269.667,-140.5 269.667,-140.5 265.833,-140.5 262,-136.667 262,-132.833 262,-132.833 262,-125.167 262,-125.167 262,-121.333 265.833,-117.5 269.667,-117.5 269.667,-117.5 344.333,-117.5 344.333,-117.5 348.167,-117.5 352,-121.333 352,-125.167 352,-125.167 352,-132.833 352,-132.833 352,-136.667 348.167,-140.5 344.333,-140.5"/>
<text text-anchor="middle" x="307" y="-125.3" font-family="Arial" font-size="14.00" fill="#c6c5fe">lib/weinre.js</text>
</g>
<!-- app.js&#45;&gt;lib/weinre.js -->
<g id="edge8" class="edge"><title>app.js&#45;&gt;lib/weinre.js</title>
<path fill="none" stroke="#757575" d="M46.4221,-203.632C58.4645,-196.599 74.7361,-187.83 90,-182 143.375,-161.612 207.214,-147.086 251.587,-138.457"/>
<polygon fill="#757575" stroke="#757575" points="252.421,-141.861 261.587,-136.547 251.108,-134.985 252.421,-141.861"/>
</g>
<!-- lib/argv.js -->
<g id="node10" class="node"><title>lib/argv.js</title>
<path fill="none" stroke="#cfffac" d="M856.333,-321.5C856.333,-321.5 795.667,-321.5 795.667,-321.5 791.833,-321.5 788,-317.667 788,-313.833 788,-313.833 788,-306.167 788,-306.167 788,-302.333 791.833,-298.5 795.667,-298.5 795.667,-298.5 856.333,-298.5 856.333,-298.5 860.167,-298.5 864,-302.333 864,-306.167 864,-306.167 864,-313.833 864,-313.833 864,-317.667 860.167,-321.5 856.333,-321.5"/>
<text text-anchor="middle" x="826" y="-306.3" font-family="Arial" font-size="14.00" fill="#cfffac">lib/argv.js</text>
</g>
<!-- lib/config.js&#45;&gt;lib/argv.js -->
<g id="edge9" class="edge"><title>lib/config.js&#45;&gt;lib/argv.js</title>
<path fill="none" stroke="#757575" d="M721.229,-310C738.912,-310 759.542,-310 777.73,-310"/>
<polygon fill="#757575" stroke="#757575" points="777.831,-313.5 787.831,-310 777.83,-306.5 777.831,-313.5"/>
</g>
<!-- lib/ftl/index.js&#45;&gt;lib/config.js -->
<g id="edge12" class="edge"><title>lib/ftl/index.js&#45;&gt;lib/config.js</title>
<path fill="none" stroke="#757575" d="M355.862,-275.188C425.189,-282.703 553.074,-296.566 624.771,-304.338"/>
<polygon fill="#757575" stroke="#757575" points="624.608,-307.841 634.927,-305.439 625.363,-300.882 624.608,-307.841"/>
</g>
<!-- lib/ftl/index.js&#45;&gt;lib/logger.js -->
<g id="edge16" class="edge"><title>lib/ftl/index.js&#45;&gt;lib/logger.js</title>
<path fill="none" stroke="#757575" d="M313.546,-281.669C329.611,-315.014 376.759,-409.632 404,-430 412.376,-436.263 422.447,-440.664 432.597,-443.755"/>
<polygon fill="#757575" stroke="#757575" points="431.736,-447.148 442.3,-446.336 433.536,-440.383 431.736,-447.148"/>
</g>
<!-- lib/ftl/ftl.js -->
<g id="node12" class="node"><title>lib/ftl/ftl.js</title>
<path fill="none" stroke="#c6c5fe" d="M515.333,-341.5C515.333,-341.5 456.667,-341.5 456.667,-341.5 452.833,-341.5 449,-337.667 449,-333.833 449,-333.833 449,-326.167 449,-326.167 449,-322.333 452.833,-318.5 456.667,-318.5 456.667,-318.5 515.333,-318.5 515.333,-318.5 519.167,-318.5 523,-322.333 523,-326.167 523,-326.167 523,-333.833 523,-333.833 523,-337.667 519.167,-341.5 515.333,-341.5"/>
<text text-anchor="middle" x="486" y="-326.3" font-family="Arial" font-size="14.00" fill="#c6c5fe">lib/ftl/ftl.js</text>
</g>
<!-- lib/ftl/index.js&#45;&gt;lib/ftl/ftl.js -->
<g id="edge13" class="edge"><title>lib/ftl/index.js&#45;&gt;lib/ftl/ftl.js</title>
<path fill="none" stroke="#757575" d="M339.048,-281.26C357.806,-287.997 382.221,-296.65 404,-304 415.364,-307.835 427.67,-311.854 439.176,-315.553"/>
<polygon fill="#757575" stroke="#757575" points="438.447,-318.995 449.038,-318.71 440.58,-312.328 438.447,-318.995"/>
</g>
<!-- lib/ipList.js -->
<g id="node13" class="node"><title>lib/ipList.js</title>
<path fill="none" stroke="#cfffac" d="M518.833,-220.5C518.833,-220.5 453.167,-220.5 453.167,-220.5 449.333,-220.5 445.5,-216.667 445.5,-212.833 445.5,-212.833 445.5,-205.167 445.5,-205.167 445.5,-201.333 449.333,-197.5 453.167,-197.5 453.167,-197.5 518.833,-197.5 518.833,-197.5 522.667,-197.5 526.5,-201.333 526.5,-205.167 526.5,-205.167 526.5,-212.833 526.5,-212.833 526.5,-216.667 522.667,-220.5 518.833,-220.5"/>
<text text-anchor="middle" x="486" y="-205.3" font-family="Arial" font-size="14.00" fill="#cfffac">lib/ipList.js</text>
</g>
<!-- lib/ftl/index.js&#45;&gt;lib/ipList.js -->
<g id="edge14" class="edge"><title>lib/ftl/index.js&#45;&gt;lib/ipList.js</title>
<path fill="none" stroke="#757575" d="M331.65,-258.628C350.832,-249.717 378.736,-237.452 404,-229 414.097,-225.622 425.074,-222.535 435.593,-219.85"/>
<polygon fill="#757575" stroke="#757575" points="436.627,-223.2 445.495,-217.403 434.947,-216.405 436.627,-223.2"/>
</g>
<!-- lib/list.js -->
<g id="node14" class="node"><title>lib/list.js</title>
<path fill="none" stroke="#cfffac" d="M511.333,-261.5C511.333,-261.5 460.667,-261.5 460.667,-261.5 456.833,-261.5 453,-257.667 453,-253.833 453,-253.833 453,-246.167 453,-246.167 453,-242.333 456.833,-238.5 460.667,-238.5 460.667,-238.5 511.333,-238.5 511.333,-238.5 515.167,-238.5 519,-242.333 519,-246.167 519,-246.167 519,-253.833 519,-253.833 519,-257.667 515.167,-261.5 511.333,-261.5"/>
<text text-anchor="middle" x="486" y="-246.3" font-family="Arial" font-size="14.00" fill="#cfffac">lib/list.js</text>
</g>
<!-- lib/ftl/index.js&#45;&gt;lib/list.js -->
<g id="edge15" class="edge"><title>lib/ftl/index.js&#45;&gt;lib/list.js</title>
<path fill="none" stroke="#757575" d="M355.899,-264.588C383.104,-261.514 416.845,-257.701 443.01,-254.745"/>
<polygon fill="#757575" stroke="#757575" points="443.452,-258.217 452.995,-253.616 442.666,-251.261 443.452,-258.217"/>
</g>
<!-- lib/live/index.js&#45;&gt;lib/config.js -->
<g id="edge17" class="edge"><title>lib/live/index.js&#45;&gt;lib/config.js</title>
<path fill="none" stroke="#757575" d="M360.541,-162.484C415.271,-157.122 502.068,-155.713 568,-188 613.836,-210.445 649.028,-261.487 665.936,-289.924"/>
<polygon fill="#757575" stroke="#757575" points="662.929,-291.715 670.958,-298.627 668.992,-288.216 662.929,-291.715"/>
</g>
<!-- lib/injectScript.js -->
<g id="node15" class="node"><title>lib/injectScript.js</title>
<path fill="none" stroke="#cfffac" d="M536.833,-140.5C536.833,-140.5 435.167,-140.5 435.167,-140.5 431.333,-140.5 427.5,-136.667 427.5,-132.833 427.5,-132.833 427.5,-125.167 427.5,-125.167 427.5,-121.333 431.333,-117.5 435.167,-117.5 435.167,-117.5 536.833,-117.5 536.833,-117.5 540.667,-117.5 544.5,-121.333 544.5,-125.167 544.5,-125.167 544.5,-132.833 544.5,-132.833 544.5,-136.667 540.667,-140.5 536.833,-140.5"/>
<text text-anchor="middle" x="486" y="-125.3" font-family="Arial" font-size="14.00" fill="#cfffac">lib/injectScript.js</text>
</g>
<!-- lib/live/index.js&#45;&gt;lib/injectScript.js -->
<g id="edge18" class="edge"><title>lib/live/index.js&#45;&gt;lib/injectScript.js</title>
<path fill="none" stroke="#757575" d="M356.835,-158.688C378.405,-153.691 403.94,-147.777 426.518,-142.547"/>
<polygon fill="#757575" stroke="#757575" points="427.373,-145.941 436.325,-140.275 425.793,-139.122 427.373,-145.941"/>
</g>
<!-- lib/logger.js&#45;&gt;lib/config.js -->
<g id="edge19" class="edge"><title>lib/logger.js&#45;&gt;lib/config.js</title>
<path fill="none" stroke="#757575" d="M529.859,-447.73C543.419,-444.79 557.573,-439.479 568,-430 602.642,-398.505 569.777,-362.95 604,-331 610.031,-325.37 617.474,-321.237 625.278,-318.206"/>
<polygon fill="#757575" stroke="#757575" points="626.507,-321.487 634.907,-315.03 624.314,-314.839 626.507,-321.487"/>
</g>
<!-- lib/mock/index.js&#45;&gt;lib/config.js -->
<g id="edge20" class="edge"><title>lib/mock/index.js&#45;&gt;lib/config.js</title>
<path fill="none" stroke="#757575" d="M171.361,-523.392C190.095,-533.178 218.986,-546.545 246,-552 299.149,-562.733 314.778,-562.368 368,-552 462.133,-533.662 504.847,-543.173 568,-471 610.307,-422.65 559.221,-377.07 604,-331 609.816,-325.016 617.216,-320.708 625.063,-317.612"/>
<polygon fill="#757575" stroke="#757575" points="626.379,-320.863 634.778,-314.406 624.185,-314.216 626.379,-320.863"/>
</g>
<!-- lib/mock/json.js -->
<g id="node16" class="node"><title>lib/mock/json.js</title>
<path fill="none" stroke="#c6c5fe" d="M354.833,-502.5C354.833,-502.5 259.167,-502.5 259.167,-502.5 255.333,-502.5 251.5,-498.667 251.5,-494.833 251.5,-494.833 251.5,-487.167 251.5,-487.167 251.5,-483.333 255.333,-479.5 259.167,-479.5 259.167,-479.5 354.833,-479.5 354.833,-479.5 358.667,-479.5 362.5,-483.333 362.5,-487.167 362.5,-487.167 362.5,-494.833 362.5,-494.833 362.5,-498.667 358.667,-502.5 354.833,-502.5"/>
<text text-anchor="middle" x="307" y="-487.3" font-family="Arial" font-size="14.00" fill="#c6c5fe">lib/mock/json.js</text>
</g>
<!-- lib/mock/index.js&#45;&gt;lib/mock/json.js -->
<g id="edge21" class="edge"><title>lib/mock/index.js&#45;&gt;lib/mock/json.js</title>
<path fill="none" stroke="#757575" d="M209.599,-504.061C219.994,-502.652 230.871,-501.179 241.42,-499.749"/>
<polygon fill="#757575" stroke="#757575" points="241.968,-503.207 251.407,-498.396 241.028,-496.271 241.968,-503.207"/>
</g>
<!-- lib/mock/jsonp.js -->
<g id="node17" class="node"><title>lib/mock/jsonp.js</title>
<path fill="none" stroke="#c6c5fe" d="M358.833,-543.5C358.833,-543.5 255.167,-543.5 255.167,-543.5 251.333,-543.5 247.5,-539.667 247.5,-535.833 247.5,-535.833 247.5,-528.167 247.5,-528.167 247.5,-524.333 251.333,-520.5 255.167,-520.5 255.167,-520.5 358.833,-520.5 358.833,-520.5 362.667,-520.5 366.5,-524.333 366.5,-528.167 366.5,-528.167 366.5,-535.833 366.5,-535.833 366.5,-539.667 362.667,-543.5 358.833,-543.5"/>
<text text-anchor="middle" x="307" y="-528.3" font-family="Arial" font-size="14.00" fill="#c6c5fe">lib/mock/jsonp.js</text>
</g>
<!-- lib/mock/index.js&#45;&gt;lib/mock/jsonp.js -->
<g id="edge22" class="edge"><title>lib/mock/index.js&#45;&gt;lib/mock/jsonp.js</title>
<path fill="none" stroke="#757575" d="M209.599,-519.561C218.665,-520.731 228.098,-521.948 237.36,-523.143"/>
<polygon fill="#757575" stroke="#757575" points="236.953,-526.62 247.318,-524.428 237.848,-519.677 236.953,-526.62"/>
</g>
<!-- lib/proxy/index.js&#45;&gt;lib/config.js -->
<g id="edge26" class="edge"><title>lib/proxy/index.js&#45;&gt;lib/config.js</title>
<path fill="none" stroke="#757575" d="M210.055,-355.167C308.553,-359.873 502.071,-366.498 568,-350 585.55,-345.608 587.218,-337.759 604,-331 610.728,-328.29 617.935,-325.776 625.104,-323.497"/>
<polygon fill="#757575" stroke="#757575" points="626.262,-326.803 634.808,-320.541 624.222,-320.107 626.262,-326.803"/>
</g>
<!-- lib/proxy/defaultProxy.js -->
<g id="node18" class="node"><title>lib/proxy/defaultProxy.js</title>
<path fill="none" stroke="#c6c5fe" d="M560.333,-421.5C560.333,-421.5 411.667,-421.5 411.667,-421.5 407.833,-421.5 404,-417.667 404,-413.833 404,-413.833 404,-406.167 404,-406.167 404,-402.333 407.833,-398.5 411.667,-398.5 411.667,-398.5 560.333,-398.5 560.333,-398.5 564.167,-398.5 568,-402.333 568,-406.167 568,-406.167 568,-413.833 568,-413.833 568,-417.667 564.167,-421.5 560.333,-421.5"/>
<text text-anchor="middle" x="486" y="-406.3" font-family="Arial" font-size="14.00" fill="#c6c5fe">lib/proxy/defaultProxy.js</text>
</g>
<!-- lib/proxy/index.js&#45;&gt;lib/proxy/defaultProxy.js -->
<g id="edge27" class="edge"><title>lib/proxy/index.js&#45;&gt;lib/proxy/defaultProxy.js</title>
<path fill="none" stroke="#757575" d="M210.328,-362.302C265.97,-371.965 349.414,-386.455 409.722,-396.928"/>
<polygon fill="#757575" stroke="#757575" points="409.495,-400.441 419.947,-398.703 410.693,-393.544 409.495,-400.441"/>
</g>
<!-- lib/proxy/proxy.js -->
<g id="node19" class="node"><title>lib/proxy/proxy.js</title>
<path fill="none" stroke="#c6c5fe" d="M359.833,-422.5C359.833,-422.5 254.167,-422.5 254.167,-422.5 250.333,-422.5 246.5,-418.667 246.5,-414.833 246.5,-414.833 246.5,-407.167 246.5,-407.167 246.5,-403.333 250.333,-399.5 254.167,-399.5 254.167,-399.5 359.833,-399.5 359.833,-399.5 363.667,-399.5 367.5,-403.333 367.5,-407.167 367.5,-407.167 367.5,-414.833 367.5,-414.833 367.5,-418.667 363.667,-422.5 359.833,-422.5"/>
<text text-anchor="middle" x="307" y="-407.3" font-family="Arial" font-size="14.00" fill="#c6c5fe">lib/proxy/proxy.js</text>
</g>
<!-- lib/proxy/index.js&#45;&gt;lib/proxy/proxy.js -->
<g id="edge28" class="edge"><title>lib/proxy/index.js&#45;&gt;lib/proxy/proxy.js</title>
<path fill="none" stroke="#757575" d="M180.886,-363.376C205.331,-372.681 240.094,-385.913 266.776,-396.07"/>
<polygon fill="#757575" stroke="#757575" points="265.615,-399.373 276.206,-399.659 268.105,-392.831 265.615,-399.373"/>
</g>
<!-- lib/weinre.js&#45;&gt;lib/config.js -->
<g id="edge30" class="edge"><title>lib/weinre.js&#45;&gt;lib/config.js</title>
<path fill="none" stroke="#757575" d="M333.852,-117.674C383.281,-97.8931 492.944,-63.2148 568,-108 635.052,-148.01 663.317,-245.113 672.889,-288.47"/>
<polygon fill="#757575" stroke="#757575" points="669.512,-289.422 674.977,-298.498 676.365,-287.995 669.512,-289.422"/>
</g>
<!-- lib/weinre.js&#45;&gt;lib/ipList.js -->
<g id="edge32" class="edge"><title>lib/weinre.js&#45;&gt;lib/ipList.js</title>
<path fill="none" stroke="#757575" d="M344.818,-140.288C352.556,-142.934 360.61,-145.895 368,-149 398.89,-161.98 432.819,-179.8 456.149,-192.642"/>
<polygon fill="#757575" stroke="#757575" points="454.711,-195.847 465.153,-197.642 458.109,-189.727 454.711,-195.847"/>
</g>
<!-- lib/weinre.js&#45;&gt;lib/injectScript.js -->
<g id="edge31" class="edge"><title>lib/weinre.js&#45;&gt;lib/injectScript.js</title>
<path fill="none" stroke="#757575" d="M352.208,-129C371.832,-129 395.37,-129 417.143,-129"/>
<polygon fill="#757575" stroke="#757575" points="417.333,-132.5 427.332,-129 417.332,-125.5 417.333,-132.5"/>
</g>
<!-- lib/ftl/TemplateRun.js -->
<g id="node11" class="node"><title>lib/ftl/TemplateRun.js</title>
<path fill="none" stroke="#cfffac" d="M743.833,-362.5C743.833,-362.5 612.167,-362.5 612.167,-362.5 608.333,-362.5 604.5,-358.667 604.5,-354.833 604.5,-354.833 604.5,-347.167 604.5,-347.167 604.5,-343.333 608.333,-339.5 612.167,-339.5 612.167,-339.5 743.833,-339.5 743.833,-339.5 747.667,-339.5 751.5,-343.333 751.5,-347.167 751.5,-347.167 751.5,-354.833 751.5,-354.833 751.5,-358.667 747.667,-362.5 743.833,-362.5"/>
<text text-anchor="middle" x="678" y="-347.3" font-family="Arial" font-size="14.00" fill="#cfffac">lib/ftl/TemplateRun.js</text>
</g>
<!-- lib/ftl/ftl.js&#45;&gt;lib/config.js -->
<g id="edge10" class="edge"><title>lib/ftl/ftl.js&#45;&gt;lib/config.js</title>
<path fill="none" stroke="#757575" d="M523.185,-326.191C551.943,-323.164 592.555,-318.889 624.828,-315.492"/>
<polygon fill="#757575" stroke="#757575" points="625.409,-318.95 634.988,-314.422 624.676,-311.989 625.409,-318.95"/>
</g>
<!-- lib/ftl/ftl.js&#45;&gt;lib/ftl/TemplateRun.js -->
<g id="edge11" class="edge"><title>lib/ftl/ftl.js&#45;&gt;lib/ftl/TemplateRun.js</title>
<path fill="none" stroke="#757575" d="M523.185,-333.999C543.341,-336.227 569.322,-339.099 594.172,-341.845"/>
<polygon fill="#757575" stroke="#757575" points="594.037,-345.352 604.361,-342.971 594.806,-338.394 594.037,-345.352"/>
</g>
<!-- lib/mock/json.js&#45;&gt;lib/logger.js -->
<g id="edge23" class="edge"><title>lib/mock/json.js&#45;&gt;lib/logger.js</title>
<path fill="none" stroke="#757575" d="M358.248,-479.645C381.499,-474.39 409.113,-468.15 432.622,-462.837"/>
<polygon fill="#757575" stroke="#757575" points="433.439,-466.241 442.421,-460.622 431.896,-459.413 433.439,-466.241"/>
</g>
<!-- lib/mock/jsonp.js&#45;&gt;lib/logger.js -->
<g id="edge24" class="edge"><title>lib/mock/jsonp.js&#45;&gt;lib/logger.js</title>
<path fill="none" stroke="#757575" d="M342.894,-520.695C351.207,-517.753 359.988,-514.437 368,-511 398.792,-497.79 432.736,-480.004 456.096,-467.232"/>
<polygon fill="#757575" stroke="#757575" points="458.043,-470.155 465.112,-462.264 454.665,-464.024 458.043,-470.155"/>
</g>
<!-- lib/proxy/defaultProxy.js&#45;&gt;lib/config.js -->
<g id="edge25" class="edge"><title>lib/proxy/defaultProxy.js&#45;&gt;lib/config.js</title>
<path fill="none" stroke="#757575" d="M539.61,-398.733C549.635,-395.08 559.604,-390.282 568,-384 590.8,-366.94 580.943,-347.71 604,-331 610.382,-326.375 617.763,-322.765 625.328,-319.948"/>
<polygon fill="#757575" stroke="#757575" points="626.541,-323.234 634.949,-316.787 624.356,-316.583 626.541,-323.234"/>
</g>
<!-- lib/proxy/proxy.js&#45;&gt;lib/logger.js -->
<g id="edge29" class="edge"><title>lib/proxy/proxy.js&#45;&gt;lib/logger.js</title>
<path fill="none" stroke="#757575" d="M358.248,-422.355C381.499,-427.61 409.113,-433.85 432.622,-439.163"/>
<polygon fill="#757575" stroke="#757575" points="431.896,-442.587 442.421,-441.378 433.439,-435.759 431.896,-442.587"/>
</g>
</g>
</svg>
